<svg xmlns="http://www.w3.org/2000/svg" viewBox="0 0 48 60" x="0px" y="0px"><title>Dahssboard</title><g><path d="M16.75,23H9.25A6.26,6.26,0,0,1,3,16.75V9.25A6.26,6.26,0,0,1,9.25,3h7.5A6.26,6.26,0,0,1,23,9.25v7.5A6.26,6.26,0,0,1,16.75,23ZM9.25,5A4.25,4.25,0,0,0,5,9.25v7.5A4.25,4.25,0,0,0,9.25,21h7.5A4.25,4.25,0,0,0,21,16.75V9.25A4.25,4.25,0,0,0,16.75,5Zm29.5,18h-7.5A6.26,6.26,0,0,1,25,16.75V9.25A6.26,6.26,0,0,1,31.25,3h7.5A6.26,6.26,0,0,1,45,9.25v7.5A6.26,6.26,0,0,1,38.75,23ZM31.25,5A4.25,4.25,0,0,0,27,9.25v7.5A4.25,4.25,0,0,0,31.25,21h7.5A4.25,4.25,0,0,0,43,16.75V9.25A4.25,4.25,0,0,0,38.75,5ZM16.75,45H9.25A6.26,6.26,0,0,1,3,38.75v-7.5A6.26,6.26,0,0,1,9.25,25h7.5A6.26,6.26,0,0,1,23,31.25v7.5A6.26,6.26,0,0,1,16.75,45ZM9.25,27A4.25,4.25,0,0,0,5,31.25v7.5A4.25,4.25,0,0,0,9.25,43h7.5A4.25,4.25,0,0,0,21,38.75v-7.5A4.25,4.25,0,0,0,16.75,27Zm29.5,18h-7.5A6.26,6.26,0,0,1,25,38.75v-7.5A6.26,6.26,0,0,1,31.25,25h7.5A6.26,6.26,0,0,1,45,31.25v7.5A6.26,6.26,0,0,1,38.75,45Zm-7.5-18A4.25,4.25,0,0,0,27,31.25v7.5A4.25,4.25,0,0,0,31.25,43h7.5A4.25,4.25,0,0,0,43,38.75v-7.5A4.25,4.25,0,0,0,38.75,27Z"/></g><text x="0" y="63" fill="#000000" font-size="5px" font-weight="bold" font-family="'Helvetica Neue', Helvetica, Arial-Unicode, Arial, Sans-serif">Created by Rois Faozi</text><text x="0" y="68" fill="#000000" font-size="5px" font-weight="bold" font-family="'Helvetica Neue', Helvetica, Arial-Unicode, Arial, Sans-serif">from the Noun Project</text></svg>